PathFileType	4	(X/Y/Z)	./resultDataOpenSim/trcMotMarkerGrf/sub09/qtm-01-04.trc
DataRate	CameraRate	NumFrames	NumMarkers	Units	OrigDataRate	OrigDataStartFrame	OrigNumFrames
250.000000	250.000000	12	24	m	250.000000	235	468
Frame#	Time	L.Toe.Tip			R.Toe.Tip			L.Ankle.Lat			R.Ankle.Lat			L.Ankle.Med			R.Ankle.Med			L.Heel			R.Heel			L.Knee.Lat			R.Knee.Lat			L.Knee.Med			R.Knee.Med			L.Thigh.Upper			R.Thigh.Upper			L.ASIS			R.ASIS			V.Sacral			L.Acromium			R.Acromium			C7			L.Elbow			R.Elbow			L.Wrist.Lat			R.Wrist.Lat
		X1	Y1	Z1	X2	Y2	Z2	X3	Y3	Z3	X4	Y4	Z4	X5	Y5	Z5	X6	Y6	Z6	X7	Y7	Z7	X8	Y8	Z8	X9	Y9	Z9	X10	Y10	Z10	X11	Y11	Z11	X12	Y12	Z12	X13	Y13	Z13	X14	Y14	Z14	X15	Y15	Z15	X16	Y16	Z16	X17	Y17	Z17	X18	Y18	Z18	X19	Y19	Z19	X20	Y20	Z20	X21	Y21	Z21	X22	Y22	Z22	X23	Y23	Z23	X24	Y24	Z24

235	0.936	0.16975907	0.040686543	0.035369513	0.27011326	0.11270874	0.16985236	0.024055022	0.072048116	-0.0055545702	0.13355107	0.1690471	0.18825781	0.041508167	0.093235578	0.09201379	0.16200744	0.19266909	0.094654614	-0.050445729	0.040309821	0.040375758	0.064519133	0.15831612	0.13389971	0.12677498	0.47607798	-0.063808211	0.33869911	0.56884982	0.21167819	0.11889588	0.47974844	0.062398999	0.33508716	0.5526236	0.085545995	0.12354537	0.90170787	-0.12252768	0.12197103	0.91555028	0.24698625	0.20988343	0.98617332	-0.061116887	0.19997554	0.99681715	0.1763933	0.042529321	1.0512867	0.050231027	0.23772996	1.440934	-0.091886478	0.1892992	1.4504581	0.2335812	0.14963742	1.4981964	0.063958864	0.092641112	1.1019414	-0.17980957	0.022616632	1.1265841	0.30328757	0.28255585	0.90785159	-0.17423801	0.13373075	0.88221966	0.34954607
236	0.94	0.16981661	0.040608409	0.035346007	0.29046085	0.11176728	0.16906249	0.02392143	0.072145909	-0.0053617026	0.15234407	0.16432092	0.18775688	0.041340007	0.093287594	0.092303017	0.18019518	0.18898876	0.094146547	-0.050591247	0.040566333	0.040728596	0.084067297	0.15200675	0.13335533	0.1274406	0.47561293	-0.063024143	0.3475242	0.57009811	0.21161284	0.12046378	0.47955296	0.062659859	0.34361465	0.55367814	0.085616805	0.12893157	0.90126191	-0.12242819	0.12865947	0.91534284	0.24717805	0.21579651	0.9856048	-0.061314262	0.20649022	0.99658524	0.17628945	0.049103305	1.0509395	0.05058225	0.24395779	1.4406443	-0.092022709	0.19552161	1.4501291	0.23346369	0.15575401	1.4977991	0.063504106	0.099342206	1.1012613	-0.1799403	0.028474792	1.1264978	0.30315396	0.29067826	0.90847184	-0.17365721	0.13930581	0.8820675	0.34986737
237	0.944	0.16979396	0.040503476	0.035398411	0.31081966	0.11085046	0.1682102	0.023707885	0.072269781	-0.0050930924	0.1712537	0.15964337	0.18724593	0.041287922	0.093350401	0.092531299	0.19843844	0.18532247	0.093658924	-0.050726116	0.040855797	0.041045297	0.1035442	0.14583579	0.13289196	0.12841664	0.47522723	-0.062555503	0.35619827	0.57113459	0.21159022	0.1223921	0.47926534	0.062953283	0.35206122	0.5545407	0.085682693	0.13421244	0.90072883	-0.12243352	0.13535736	0.91501497	0.24736859	0.22173768	0.98498105	-0.061521731	0.21301771	0.99626264	0.17618257	0.055488993	1.0504562	0.050925899	0.25017953	1.4402794	-0.092154819	0.20174583	1.4497211	0.23334678	0.16184743	1.4973581	0.063091785	0.10603042	1.1004926	-0.18006177	0.034082741	1.1263583	0.3030835	0.29878894	0.90901709	-0.17306525	0.14491923	0.8818286	0.35018645
238	0.948	0.16973613	0.04040669	0.035474025	0.3311549	0.1099814	0.16731117	0.023463131	0.072395771	-0.004755044	0.19026278	0.15505885	0.18669811	0.04146439	0.093385089	0.092650452	0.21672586	0.18170222	0.093176493	-0.050821025	0.041134611	0.041316704	0.12292431	0.13980818	0.13249902	0.12968487	0.4749071	-0.062382634	0.3647298	0.57197887	0.21162723	0.12466495	0.47890396	0.063156178	0.36041807	0.55518291	0.08580568	0.13928535	0.90009337	-0.12258311	0.14207295	0.91457739	0.247559	0.22769149	0.98430451	-0.061742523	0.21955587	0.99584864	0.17606724	0.061740651	1.0498708	0.051212545	0.25639027	1.4398371	-0.092279257	0.20796921	1.4492379	0.233235	0.16796124	1.4968612	0.0628153	0.11269003	1.0996458	-0.1801602	0.039553716	1.1261406	0.30302942	0.30688324	0.90948682	-0.17246685	0.15056492	0.88150219	0.35050405
239	0.952	0.1696998	0.04033734	0.035516832	0.35144544	0.10916661	0.16638228	0.023163328	0.072525917	-0.004312008	0.20935719	0.15058423	0.18612771	0.041798186	0.093375386	0.092720633	0.23507095	0.17815919	0.09269302	-0.050867268	0.041369407	0.041560458	0.14237118	0.13389495	0.13207393	0.13108747	0.4746205	-0.062351875	0.37311324	0.57264667	0.21173385	0.12685635	0.4785531	0.063312741	0.36866697	0.55560336	0.086090279	0.14421555	0.89937535	-0.12283303	0.14879758	0.91403803	0.24774787	0.23364504	0.98358069	-0.061978358	0.22610298	0.99534366	0.17594115	0.067965839	1.0492316	0.051474596	0.26259237	1.4393175	-0.09240294	0.21419279	1.4486844	0.23312914	0.17410987	1.4963048	0.062656235	0.11933648	1.098727	-0.18025067	0.044988804	1.1258239	0.3029377	0.31495483	0.90988215	-0.1718682	0.15623014	0.88109143	0.35081966
240	0.956	0.16970075	0.040289019	0.035518727	0.37168811	0.10838529	0.16543606	0.022828726	0.072659753	-0.0037915364	0.2285456	0.1462032	0.18555066	0.042131759	0.093337826	0.092830123	0.25349027	0.17470332	0.092213883	-0.050879325	0.041564328	0.041800052	0.16201195	0.12808867	0.13154263	0.13245941	0.47434863	-0.062314742	0.38133544	0.57314901	0.21190516	0.12864432	0.47826905	0.063530841	0.37679045	0.55583304	0.086578582	0.14922751	0.89863964	-0.12300944	0.15551889	0.91340453	0.24793605	0.23959181	0.98281493	-0.062230505	0.23265764	0.99475026	0.17580426	0.074235611	1.0485838	0.051755446	0.26878954	1.4387265	-0.092536295	0.22041876	1.4480651	0.23302818	0.1802807	1.4956905	0.062544989	0.12603065	1.0977305	-0.18039373	0.050448355	1.1253924	0.30276365	0.32299816	0.91020624	-0.17127278	0.16190104	0.880599	0.35113486
241	0.96	0.16972	0.040247784	0.035501188	0.39190437	0.10760459	0.16447734	0.02257471	0.072776337	-0.0033140041	0.24785484	0.14189133	0.18495602	0.042385947	0.093294003	0.093006422	0.27198354	0.17133196	0.091746684	-0.050879235	0.041744087	0.042055909	0.1818745	0.12240157	0.13089923	0.13369465	0.47408295	-0.06218317	0.38938971	0.57349537	0.21212558	0.13011208	0.47803391	0.063807956	0.38477439	0.55590268	0.087192782	0.15450915	0.89794662	-0.12296252	0.16223765	0.91268434	0.24812894	0.24553021	0.98200866	-0.062498003	0.23921947	0.99407037	0.17565789	0.080561627	1.0479358	0.052076871	0.27498441	1.4380715	-0.09268125	0.2266426	1.4473842	0.23293279	0.18646054	1.4950144	0.0624418	0.13282971	1.0966486	-0.18064405	0.056037204	1.1248301	0.30250708	0.33101091	0.91046298	-0.17068039	0.16757389	0.88002519	0.35145622
242	0.964	0.16973259	0.040206395	0.035484	0.41212135	0.10681636	0.16350952	0.022459327	0.072865908	-0.0029476911	0.26728672	0.13765405	0.18433262	0.042578546	0.093252065	0.093224994	0.29053765	0.16804696	0.091301329	-0.05088	0.041929566	0.042339126	0.20193144	0.11684701	0.13017837	0.13480799	0.47381964	-0.061964491	0.39728645	0.57368791	0.21238577	0.13152513	0.47780593	0.064060103	0.39261663	0.55581506	0.087793592	0.1600515	0.89730692	-0.12269945	0.16895782	0.91187849	0.2483295	0.25146523	0.98115997	-0.062773936	0.24578662	0.99330275	0.17550644	0.086910389	1.0472376	0.052433131	0.28117943	1.4373568	-0.092828354	0.23285463	1.4466444	0.23284313	0.19264929	1.4942735	0.062342763	0.13970517	1.0954895	-0.18095991	0.061896838	1.1241388	0.30224522	0.33899623	0.91065455	-0.17008487	0.17326118	0.87937189	0.35179255
243	0.968	0.16972521	0.040166225	0.035472391	0.43234143	0.10605438	0.16254532	0.022431375	0.072941877	-0.0026603057	0.28678273	0.13353305	0.18370177	0.04275252	0.093210177	0.093461987	0.30914625	0.16485574	0.090878832	-0.050884589	0.04213268	0.042654535	0.22209027	0.11145697	0.12946586	0.13593167	0.47355879	-0.06174895	0.40504108	0.573713	0.21268798	0.1330268	0.47758184	0.064245187	0.40033985	0.55555452	0.088291698	0.16571653	0.89669357	-0.12232309	0.17567296	0.91098242	0.24853386	0.25740484	0.98026687	-0.063049343	0.25235619	0.99244526	0.17535589	0.093244138	1.0464252	0.052805001	0.28737493	1.436587	-0.092969245	0.23905084	1.4458452	0.2327582	0.19885232	1.4934703	0.062251268	0.14654588	1.0942751	-0.18120257	0.068062082	1.1233516	0.30207573	0.34695969	0.91078155	-0.16947711	0.17899061	0.87864854	0.35214699
244	0.972	0.16970704	0.040133526	0.035453919	0.45254856	0.10537198	0.16160671	0.022425258	0.073021766	-0.0023983485	0.30627249	0.12956976	0.1830985	0.042938301	0.093164941	0.093714298	0.32781487	0.16176684	0.090464045	-0.050891249	0.04235928	0.043006676	0.24221406	0.10628276	0.12887369	0.13717805	0.4733026	-0.061610645	0.41264927	0.57354825	0.21303223	0.1346387	0.47739457	0.064357927	0.40798309	0.55510939	0.088700543	0.17137641	0.8960708	-0.12192228	0.18237903	0.90999699	0.24873882	0.26335394	0.97933038	-0.063319876	0.25893205	0.99150071	0.17520957	0.09954195	1.0454796	0.053163472	0.29356766	1.4357693	-0.093108713	0.24523839	1.4449845	0.2326793	0.20506953	1.4926071	0.062166874	0.15327978	1.0930197	-0.18127927	0.074367813	1.1225181	0.30202612	0.35490145	0.91084402	-0.16885575	0.18479167	0.87786945	0.35251363
245	0.976	0.16970383	0.040113259	0.035409395	0.47273826	0.10480622	0.16071244	0.022411887	0.073115497	-0.0021260254	0.32575223	0.12577705	0.1825294	0.043148439	0.093119697	0.093989248	0.34654785	0.15879173	0.090044174	-0.050896028	0.042609845	0.043398619	0.26226177	0.10134403	0.12841373	0.13851959	0.47305514	-0.06153545	0.42008604	0.57317848	0.21340941	0.13640611	0.47727433	0.064363369	0.41557104	0.55447811	0.089091283	0.17696651	0.89540845	-0.12154515	0.18908418	0.90893283	0.24894703	0.26931877	0.97835567	-0.063584895	0.26552852	0.99047942	0.17506858	0.10577207	1.0444214	0.053439651	0.29975577	1.4349053	-0.093255603	0.25143137	1.444063	0.23260956	0.21129573	1.4916833	0.062091944	0.15996125	1.0917182	-0.18125717	0.080591238	1.1216757	0.30205152	0.36281572	0.91084164	-0.16822994	0.19066789	0.87704208	0.35288621
246	0.98	0.16972764	0.040102836	0.035337133	0.49292519	0.10436463	0.159867	0.022388178	0.073225306	-0.001818363	0.34526735	0.12215406	0.18197656	0.043379974	0.093088267	0.094287609	0.36533683	0.15594607	0.089617669	-0.05089349	0.042880877	0.04382895	0.28233156	0.096608585	0.12797015	0.13984466	0.47282343	-0.061470701	0.42732964	0.57260442	0.2138074	0.1383882	0.47721638	0.064222593	0.42309337	0.55366984	0.089512701	0.18248192	0.89469161	-0.12121001	0.19579034	0.90779929	0.24915885	0.27531073	0.97734822	-0.063845072	0.27216079	0.98939276	0.1749357	0.11188206	1.0432715	0.053516425	0.30594436	1.4339874	-0.093405027	0.25763937	1.4430857	0.23255025	0.21752567	1.4906972	0.062032118	0.1666989	1.0903607	-0.18127878	0.08667943	1.1208242	0.30209373	0.37069832	0.91077418	-0.16760835	0.19658946	0.87616303	0.3532678
